<svg width="58px" height="36px" viewBox="0 0 58 36" version="1.1" xmlns="http://www.w3.org/2000/svg" xmlns:xlink="http://www.w3.org/1999/xlink">
    <title>tableview</title>
    <g id="Product-table" stroke="none" stroke-width="1" fill="none" fill-rule="evenodd">
        <g id="Products-table-Copy" transform="translate(-674.000000, -724.000000)" fill-rule="nonzero">
            <g id="tableview" transform="translate(674.000000, 724.000000)">
                <path d="M43.5,9 C37.9861111,9 33.5,13.4861111 33.5,19 C33.5,24.5138889 37.9861111,29 43.5,29 C49.0138889,29 53.5,24.5138889 53.5,19 C53.5,13.4861111 49.0138889,9 43.5,9 Z" id="Shape" stroke="#3A3A3C" stroke-width="2" fill-opacity="0" fill="#FFFFFF"></path>
                <path d="M56.2410314,36 C55.9837444,36 55.723935,35.9016256 55.5271861,35.7048767 L48.5451233,28.7228139 C48.1516256,28.3293161 48.1516256,27.6911435 48.5451233,27.2951233 C48.9386211,26.9016256 49.5793161,26.9016256 49.9728139,27.2951233 L56.9548767,34.2771861 C57.3483744,34.6706839 57.3483744,35.3088565 56.9548767,35.7048767 C56.7581278,35.9016256 56.5008408,36 56.2410314,36 L56.2410314,36 Z" id="Path" fill="#3A3A3C"></path>
                <path d="M20,35 C19.4461538,35 19,34.2394737 19,33.3 L19,2.7 C19,1.76052632 19.4461538,1 20,1 C20.5538462,1 21,1.76052632 21,2.7 L21,33.3 C21,34.2394737 20.5538462,35 20,35 Z" id="Path" fill="#3A3A3C"></path>
                <path d="M27,14 L3,14 C1.89615385,14 1,13.5538462 1,13 C1,12.4461538 1.89615385,12 3,12 L27,12 C28.1038462,12 29,12.4461538 29,13 C29,13.5538462 28.1038462,14 27,14 Z" id="Path" fill="#3A3A3C"></path>
                <path d="M27,24 L3,24 C1.89615385,24 1,23.5538462 1,23 C1,22.4461538 1.89615385,22 3,22 L27,22 C28.1038462,22 29,22.4461538 29,23 C29,23.5538462 28.1038462,24 27,24 Z" id="Path" fill="#3A3A3C"></path>
                <path d="M35,1 C35,1.55172414 34.2173112,2 33.2504604,2 L1.75414365,2 C0.787292818,2 0,1.55172414 0,1 C0,0.448275862 0.787292818,0 1.75414365,0 L33.2504604,0 C34.2173112,0 35,0.448275862 35,1 Z" id="Path" fill="#3A3A3C"></path>
                <path d="M1,36 C0.446153846,36 0,35.1934615 0,34.2 L0,1.8 C0,0.806538462 0.446153846,0 1,0 C1.55384615,0 2,0.806538462 2,1.8 L2,34.2 C2,35.1934615 1.55384615,36 1,36 Z" id="Path" fill="#3A3A3C"></path>
                <path d="M35,35 C35,35.5517241 34.2172083,36 33.2502302,36 L1.74976977,36 C0.782791738,36 0,35.5517241 0,35 C0,34.4482759 0.782791738,34 1.74976977,34 L33.2502302,34 C34.2172083,34 35,34.4482759 35,35 Z" id="Path" fill="#3A3A3C"></path>
            </g>
        </g>
    </g>
</svg>