<?xml version="1.0" encoding="UTF-8"?>
<svg width="97px" height="80px" viewBox="0 0 97 80" version="1.1" xmlns="http://www.w3.org/2000/svg" xmlns:xlink="http://www.w3.org/1999/xlink">
    <title>drag-drop</title>
    <g id="frontend" stroke="none" stroke-width="1" fill="none" fill-rule="evenodd">
        <g id="drag-drop" fill-rule="nonzero">
            <path d="M52.8393726,47 C52.4641178,47 52.1604194,46.6854923 52.1604194,46.2988024 C52.1604194,45.9121126 52.4649499,45.5976049 52.8393726,45.5976049 L54.2313933,45.5976049 C54.6066481,45.5976049 54.9103465,45.9112533 54.9103465,46.2988024 C54.9103465,46.6863516 54.605816,47 54.2313933,47 L52.8393726,47 Z M49.4104922,47 L48.0392728,47 C47.664018,47 47.3603195,46.6854923 47.3603195,46.2988024 C47.3603195,45.9121126 47.66485,45.5976049 48.0392728,45.5976049 L49.4104922,45.5976049 C49.785747,45.5976049 50.0894454,45.9121126 50.0894454,46.2988024 C50.0894454,46.6854923 49.7849149,47 49.4104922,47 Z M44.6103923,47 L43.2391729,47 C42.8639181,47 42.5602197,46.6854923 42.5602197,46.2988024 C42.5602197,45.9121126 42.8647502,45.5976049 43.2391729,45.5976049 L44.6103923,45.5976049 C44.9856471,45.5976049 45.2893456,45.9121126 45.2893456,46.2988024 C45.2893456,46.6854923 44.9848151,47 44.6103923,47 Z M39.8102925,47 L38.4390731,47 C38.0638183,47 37.7601198,46.6854923 37.7601198,46.2988024 C37.7601198,45.9121126 38.0646503,45.5976049 38.4390731,45.5976049 L39.8102925,45.5976049 C40.1855473,45.5976049 40.4892457,45.9121126 40.4892457,46.2988024 C40.4892457,46.6854923 40.1847152,47 39.8102925,47 Z M35.0101926,47 L33.6389732,47 C33.2637184,47 32.96002,46.6854923 32.96002,46.2988024 C32.96002,45.9121126 33.2645505,45.5976049 33.6389732,45.5976049 L35.0101926,45.5976049 C35.3854474,45.5976049 35.6891459,45.9121126 35.6891459,46.2988024 C35.6891459,46.6854923 35.3846154,47 35.0101926,47 Z M30.2100928,47 L28.8388734,47 C28.4636186,47 28.1599201,46.6854923 28.1599201,46.2988024 C28.1599201,45.9121126 28.4644506,45.5976049 28.8388734,45.5976049 L30.2100928,45.5976049 C30.5853476,45.5976049 30.8890461,45.9121126 30.8890461,46.2988024 C30.8890461,46.6854923 30.5845155,47 30.2100928,47 Z M25.4099929,47 L24.0387736,47 C23.6635187,47 23.3598203,46.6854923 23.3598203,46.2988024 C23.3598203,45.9121126 23.6643508,45.5976049 24.0387736,45.5976049 L25.4099929,45.5976049 C25.7852477,45.5976049 26.0889462,45.9121126 26.0889462,46.2988024 C26.0889462,46.6854923 25.7844157,47 25.4099929,47 Z M20.6098931,47 L19.2386737,47 C18.8634189,47 18.5597204,46.6854923 18.5597204,46.2988024 C18.5597204,45.9121126 18.8634189,45.5976049 19.2386737,45.5976049 L20.6098931,45.5976049 C20.9851479,45.5976049 21.2888464,45.9121126 21.2888464,46.2988024 C21.2888464,46.6854923 20.9851479,47 20.6098931,47 Z M15.8097932,47 L14.4385739,47 C14.063319,47 13.7596206,46.6854923 13.7596206,46.2988024 C13.7596206,45.9121126 14.0641511,45.5976049 14.4385739,45.5976049 L15.8097932,45.5976049 C16.1850481,45.5976049 16.4887465,45.9121126 16.4887465,46.2988024 C16.4887465,46.6854923 16.184216,47 15.8097932,47 Z M11.0096934,47 L9.63847402,47 C9.2632192,47 8.95952074,46.6854923 8.95952074,46.2988024 C8.95952074,45.9121126 9.26405125,45.5976049 9.63847402,45.5976049 L11.0096934,45.5976049 C11.3849482,45.5976049 11.6886467,45.9121126 11.6886467,46.2988024 C11.6886467,46.6854923 11.3841162,47 11.0096934,47 Z M6.20959354,47 L5.78857595,47 C5.42996214,47 5.06968424,46.9656276 4.71939094,46.897742 C4.35079253,46.8264192 4.10783376,46.4603529 4.1760619,46.0796782 C4.2451221,45.6990036 4.5987436,45.4480848 4.96817406,45.5185483 C5.23692641,45.570107 5.5131672,45.5967456 5.78857595,45.5967456 L6.20959354,45.5967456 C6.58484836,45.5967456 6.88854682,45.9112533 6.88854682,46.2979431 C6.88854682,46.684633 6.58484836,46.9991407 6.20959354,46.9991407 L6.20959354,47 Z M57.4031701,45.8442271 C57.20431,45.8442271 57.007114,45.7539995 56.8723218,45.581278 C56.6376836,45.2788006 56.6851105,44.8371149 56.9779923,44.5947893 C57.2883471,44.3378554 57.5637559,44.0396746 57.7975621,43.7079806 C58.0180555,43.3943322 58.4432333,43.324728 58.7460998,43.5533047 C59.0497982,43.781022 59.1171943,44.2201298 58.8958689,44.5329189 C58.5913384,44.9660115 58.2318925,45.35442 57.8275159,45.6895511 C57.7018763,45.7935277 57.5521072,45.8433678 57.4031701,45.8433678 L57.4031701,45.8442271 Z M1.92702916,45.1791206 C1.73732163,45.1791206 1.54844615,45.0974861 1.41365395,44.9376543 C1.07334526,44.5329189 0.787119857,44.0826401 0.564130299,43.6005668 C0.401880434,43.2508273 0.544993136,42.832343 0.883637725,42.6647774 C1.22228231,42.4972118 1.62749095,42.6450133 1.78974082,42.9947527 C1.96031119,43.363397 2.17914049,43.7079806 2.44040438,44.0181918 C2.68669135,44.3112167 2.65590548,44.7537618 2.37217623,45.0081177 C2.24404044,45.1232654 2.08511878,45.1799799 1.92702916,45.1799799 L1.92702916,45.1791206 Z M59.3202147,41.4961148 C58.9449599,41.4961148 58.6412614,41.1816071 58.6412614,40.7949173 L58.6412614,39.3787732 C58.6412614,38.9912241 58.9457919,38.6775756 59.3202147,38.6775756 C59.6946374,38.6775756 59.9991679,38.9920834 59.9991679,39.3787732 L59.9991679,40.7949173 C59.9991679,41.1824664 59.6946374,41.4961148 59.3202147,41.4961148 Z M0.67895328,40.5354054 C0.303698465,40.5354054 0,40.2208977 0,39.8342079 L0,38.4180638 C0,38.0305147 0.304530515,37.7168663 0.67895328,37.7168663 C1.05337605,37.7168663 1.35790656,38.031374 1.35790656,38.4180638 L1.35790656,39.8342079 C1.35790656,40.221757 1.05337605,40.5354054 0.67895328,40.5354054 Z M59.3210467,36.5378919 C58.9457919,36.5378919 58.6420934,36.2233842 58.6420934,35.8366944 L58.6420934,34.4205503 C58.6420934,34.0330012 58.946624,33.7193528 59.3210467,33.7193528 C59.6954695,33.7193528 60,34.0338605 60,34.4205503 L60,35.8366944 C60,36.2242435 59.6954695,36.5378919 59.3210467,36.5378919 Z M0.67895328,35.5780419 C0.303698465,35.5780419 0,35.2635341 0,34.8768443 L0,33.4607002 C0,33.0731511 0.304530515,32.7595027 0.67895328,32.7595027 C1.05337605,32.7595027 1.35790656,33.0740104 1.35790656,33.4607002 L1.35790656,34.8768443 C1.35790656,35.2643935 1.05337605,35.5780419 0.67895328,35.5780419 Z M59.3210467,31.5805284 C58.9457919,31.5805284 58.6420934,31.2660207 58.6420934,30.8793308 L58.6420934,29.4631868 C58.6420934,29.0756376 58.946624,28.7619892 59.3210467,28.7619892 C59.6954695,28.7619892 60,29.0764969 60,29.4631868 L60,30.8793308 C60,31.26688 59.6954695,31.5805284 59.3210467,31.5805284 Z M0.67895328,30.6206783 C0.303698465,30.6206783 0,30.3061706 0,29.9194808 L0,28.5033367 C0,28.1157875 0.304530515,27.8021391 0.67895328,27.8021391 C1.05337605,27.8021391 1.35790656,28.1166469 1.35790656,28.5033367 L1.35790656,29.9194808 C1.35790656,30.3070299 1.05337605,30.6206783 0.67895328,30.6206783 Z M59.3210467,26.6231648 C58.9457919,26.6231648 58.6420934,26.3086571 58.6420934,25.9219673 L58.6420934,24.5058232 C58.6420934,24.1182741 58.946624,23.8046257 59.3210467,23.8046257 C59.6954695,23.8046257 60,24.1191334 60,24.5058232 L60,25.9219673 C60,26.3095164 59.6954695,26.6231648 59.3210467,26.6231648 Z M0.67895328,25.6633147 C0.303698465,25.6633147 0,25.348807 0,24.9621172 L0,23.5459731 C0,23.158424 0.304530515,22.8447756 0.67895328,22.8447756 C1.05337605,22.8447756 1.35790656,23.1592833 1.35790656,23.5459731 L1.35790656,24.9621172 C1.35790656,25.3496663 1.05337605,25.6633147 0.67895328,25.6633147 Z M59.3210467,21.6658013 C58.9457919,21.6658013 58.6420934,21.3521528 58.6420934,20.9646037 L58.6420934,19.5484596 C58.6420934,19.1609105 58.946624,18.8472621 59.3210467,18.8472621 C59.6954695,18.8472621 60,19.1609105 60,19.5484596 L60,20.9646037 C60,21.3521528 59.6954695,21.6658013 59.3210467,21.6658013 Z M0.67895328,20.7059512 C0.303698465,20.7059512 0,20.3923028 0,20.0047536 L0,18.5886096 C0,18.2010604 0.304530515,17.887412 0.67895328,17.887412 C1.05337605,17.887412 1.35790656,18.2019197 1.35790656,18.5886096 L1.35790656,20.0047536 C1.35790656,20.3923028 1.05337605,20.7059512 0.67895328,20.7059512 Z M59.3210467,16.7084377 C58.9457919,16.7084377 58.6420934,16.39393 58.6420934,16.0072401 L58.6420934,14.5910961 C58.6420934,14.2035469 58.946624,13.8898985 59.3210467,13.8898985 C59.6954695,13.8898985 60,14.2044063 60,14.5910961 L60,16.0072401 C60,16.3947893 59.6954695,16.7084377 59.3210467,16.7084377 Z M0.67895328,15.7485876 C0.303698465,15.7485876 0,15.4349392 0,15.0473901 L0,13.631246 C0,13.2436969 0.304530515,12.9300485 0.67895328,12.9300485 C1.05337605,12.9300485 1.35790656,13.2436969 1.35790656,13.631246 L1.35790656,15.0473901 C1.35790656,15.4349392 1.05337605,15.7485876 0.67895328,15.7485876 Z M59.3210467,11.7510741 C58.9457919,11.7510741 58.6420934,11.4365664 58.6420934,11.0498766 L58.6420934,9.63373252 C58.6420934,9.24618338 58.946624,8.93253497 59.3210467,8.93253497 C59.6954695,8.93253497 60,9.24704269 60,9.63373252 L60,11.0498766 C60,11.4374257 59.6954695,11.7510741 59.3210467,11.7510741 Z M0.67895328,10.7912241 C0.303698465,10.7912241 0,10.4767163 0,10.0900265 L0,8.67388244 C0,8.2863333 0.304530515,7.97268489 0.67895328,7.97268489 C1.05337605,7.97268489 1.35790656,8.28719261 1.35790656,8.67388244 L1.35790656,10.0900265 C1.35790656,10.4775756 1.05337605,10.7912241 0.67895328,10.7912241 Z M59.3210467,6.79371058 C58.9457919,6.79371058 58.6420934,6.48006216 58.6420934,6.09251303 L58.6420934,5.9782247 C58.6420934,5.59926867 58.5971627,5.22374989 58.5089653,4.86026145 C58.4174398,4.48474266 58.6387652,4.1032087 59.0023713,4.00954383 C59.3668095,3.91587897 59.7354079,4.14359631 59.8261014,4.51911509 C59.9417565,4.99345461 60,5.48412103 60,5.9782247 L60,6.09337234 C60,6.48092147 59.6954695,6.79456989 59.3210467,6.79456989 L59.3210467,6.79371058 Z M0.744685277,5.83815705 C0.708907102,5.83815705 0.673128926,5.83557912 0.6365187,5.82956395 C0.266256188,5.76855288 0.01414486,5.40850169 0.0732204518,5.02610842 C0.15559346,4.49677301 0.306194617,3.98118658 0.52252777,3.4939574 C0.67895328,3.14164 1.08166577,2.98696407 1.42280651,3.14765518 C1.76394725,3.30920559 1.91371635,3.72511198 1.75812289,4.07742938 C1.59337688,4.44951092 1.47772185,4.84307524 1.41531805,5.24781059 C1.36206681,5.59239419 1.07334526,5.83815705 0.745517327,5.83815705 L0.744685277,5.83815705 Z M57.3174689,2.48942316 C57.1735242,2.48942316 57.0279153,2.44216108 56.9047718,2.34419965 C56.5894246,2.09414023 56.2432916,1.88962428 55.8763573,1.73580766 C55.5285601,1.58972484 55.361318,1.18069293 55.5027666,0.822360362 C55.6442152,0.46316848 56.0402712,0.290447024 56.3872363,0.436529847 C56.8673295,0.637608557 57.319133,0.904854191 57.7318301,1.23139227 C58.0297042,1.4668434 58.0854516,1.90766981 57.8574697,2.21530304 C57.7235096,2.3957583 57.5221533,2.49028248 57.318301,2.49028248 L57.3174689,2.48942316 Z M3.46798685,1.97727397 C3.22086783,1.97727397 2.98290136,1.83720633 2.86225403,1.5948807 C2.69168365,1.2502971 2.8239797,0.827516226 3.15846403,0.651357528 C3.62108416,0.407313283 4.11282606,0.229435963 4.62120897,0.122022123 C4.98897533,0.0446841576 5.34758913,0.288728403 5.42330574,0.668543743 C5.49902234,1.04835908 5.26188792,1.418722 4.89412156,1.49691928 C4.50638599,1.57941311 4.13029912,1.7151842 3.77667762,1.90165463 C3.6776636,1.95407258 3.57199318,1.9789926 3.46798685,1.9789926 L3.46798685,1.97727397 Z M52.7511753,1.4023951 L51.3799559,1.4023951 C51.0047011,1.4023951 50.7010026,1.08788738 50.7010026,0.70119755 C50.7010026,0.314507725 51.0055331,0 51.3799559,0 L52.7511753,0 C53.1264301,0 53.4301286,0.314507725 53.4301286,0.70119755 C53.4301286,1.08788738 53.125598,1.4023951 52.7511753,1.4023951 Z M47.9510754,1.4023951 L46.5798561,1.4023951 C46.2046012,1.4023951 45.9009028,1.08788738 45.9009028,0.70119755 C45.9009028,0.314507725 46.2054333,0 46.5798561,0 L47.9510754,0 C48.3263302,0 48.6300287,0.314507725 48.6300287,0.70119755 C48.6300287,1.08788738 48.3254982,1.4023951 47.9510754,1.4023951 Z M43.1509756,1.4023951 L41.7797562,1.4023951 C41.4045014,1.4023951 41.1008029,1.08788738 41.1008029,0.70119755 C41.1008029,0.314507725 41.4053334,0 41.7797562,0 L43.1509756,0 C43.5262304,0 43.8299289,0.314507725 43.8299289,0.70119755 C43.8299289,1.08788738 43.5253983,1.4023951 43.1509756,1.4023951 Z M38.3508757,1.4023951 L36.9796564,1.4023951 C36.6044015,1.4023951 36.3007031,1.08788738 36.3007031,0.70119755 C36.3007031,0.314507725 36.6052336,0 36.9796564,0 L38.3508757,0 C38.7261305,0 39.029829,0.314507725 39.029829,0.70119755 C39.029829,1.08788738 38.7252985,1.4023951 38.3508757,1.4023951 Z M33.5507759,1.4023951 L32.1795565,1.4023951 C31.8043017,1.4023951 31.5006032,1.08788738 31.5006032,0.70119755 C31.5006032,0.314507725 31.8051338,0 32.1795565,0 L33.5507759,0 C33.9260307,0 34.2297292,0.314507725 34.2297292,0.70119755 C34.2297292,1.08788738 33.9251987,1.4023951 33.5507759,1.4023951 Z M28.750676,1.4023951 L27.3794567,1.4023951 C27.0042019,1.4023951 26.7005034,1.08788738 26.7005034,0.70119755 C26.7005034,0.314507725 27.0042019,0 27.3794567,0 L28.750676,0 C29.1259309,0 29.4296293,0.314507725 29.4296293,0.70119755 C29.4296293,1.08788738 29.1259309,1.4023951 28.750676,1.4023951 Z M23.9505762,1.4023951 L22.5793568,1.4023951 C22.204102,1.4023951 21.9004035,1.08788738 21.9004035,0.70119755 C21.9004035,0.314507725 22.2049341,0 22.5793568,0 L23.9505762,0 C24.325831,0 24.6295295,0.314507725 24.6295295,0.70119755 C24.6295295,1.08788738 24.324999,1.4023951 23.9505762,1.4023951 Z M19.1504763,1.4023951 L17.779257,1.4023951 C17.4040022,1.4023951 17.1003037,1.08788738 17.1003037,0.70119755 C17.1003037,0.314507725 17.4048342,0 17.779257,0 L19.1504763,0 C19.5257312,0 19.8294296,0.314507725 19.8294296,0.70119755 C19.8294296,1.08788738 19.5248991,1.4023951 19.1504763,1.4023951 Z M14.3503765,1.4023951 L12.9791571,1.4023951 C12.6039023,1.4023951 12.3002039,1.08788738 12.3002039,0.70119755 C12.3002039,0.314507725 12.6039023,0 12.9791571,0 L14.3503765,0 C14.7256313,0 15.0293298,0.314507725 15.0293298,0.70119755 C15.0293298,1.08788738 14.7256313,1.4023951 14.3503765,1.4023951 Z M9.55027666,1.4023951 L8.17905729,1.4023951 C7.80380247,1.4023951 7.50010401,1.08788738 7.50010401,0.70119755 C7.50010401,0.314507725 7.80463452,0 8.17905729,0 L9.55027666,0 C9.92553147,0 10.2292299,0.314507725 10.2292299,0.70119755 C10.2292299,1.08788738 9.92469942,1.4023951 9.55027666,1.4023951 Z" id="Shape" fill="#B3B3B3"></path>
            <path d="M29.3880535,24 C29.0498331,24 28.7761071,23.6835036 28.7761071,23.2943687 L28.7761071,16.4101398 L26.045596,19.5586736 C25.8063669,19.834527 25.4186509,19.834527 25.1794218,19.5586736 C24.9401927,19.2828202 24.9401927,18.8357474 25.1794218,18.559894 L28.9545915,14.2067715 C29.1293262,14.0044214 29.3933031,13.944754 29.6220331,14.0537118 C29.8507631,14.1626696 30,14.4203633 30,14.7057289 L30,23.2943687 C30,23.6843684 29.725524,24 29.3880535,24 L29.3880535,24 Z" id="Path" fill="#B3B3B3"></path>
            <path d="M29.6119465,24 C29.273726,24 29,23.6834976 29,23.2943553 L29,14.7055521 C29,14.4201811 29.1492369,14.1624824 29.3779669,14.0535226 C29.6066969,13.9445627 29.8699239,14.005096 30.0454085,14.2065852 L33.8205782,18.5597905 C34.0598073,18.8356492 34.0598073,19.2827305 33.8205782,19.5585891 C33.5813491,19.8344478 33.1936331,19.8344478 32.9551539,19.5585891 L30.2246428,16.4099955 L30.2246428,23.2943553 C30.2246428,23.6843623 29.9501669,24 29.6126964,24 L29.6119465,24 Z" id="Path" fill="#B3B3B3"></path>
            <path d="M33.3723077,28 L25.6276923,28 C25.2807692,28 25,27.5514706 25,27 C25,26.4485294 25.2815385,26 25.6276923,26 L33.3723077,26 C33.7192308,26 34,26.4485294 34,27 C34,27.5514706 33.7184615,28 33.3723077,28 Z" id="Path" fill="#B3B3B3"></path>
            <g id="Group" transform="translate(32.000000, 33.000000)">
                <rect id="Rectangle" fill="#FFFFFF" x="0.678943865" y="0.702044025" width="58.6412802" height="45.5967712" rx="5"></rect>
                <path d="M54.2106723,47 L5.78932771,47 C2.59762592,47 0,44.3181403 0,41.0210253 L0,5.9789747 C0,2.68271903 2.59679388,0 5.78932771,0 L54.2106723,0 C57.4023741,0 60,2.68185973 60,5.9789747 L60,41.0210253 C60,44.317281 57.4032061,47 54.2106723,47 Z M5.78932771,1.40322876 C3.34646106,1.40322876 1.35871977,3.45608454 1.35871977,5.9789747 L1.35871977,41.0210253 C1.35871977,43.5439155 3.34646106,45.5967712 5.78932771,45.5967712 L54.2106723,45.5967712 C56.6535389,45.5967712 58.6412802,43.5439155 58.6412802,41.0210253 L58.6412802,5.9789747 C58.6412802,3.45608454 56.6535389,1.40322876 54.2106723,1.40322876 L5.78932771,1.40322876 Z" id="Shape" fill="#B3B3B3"></path>
            </g>
            <g id="Group" transform="translate(51.000000, 50.003974)">
                <path d="M14.9184377,8.08319299 L12.4095598,11.7184117 C11.7490349,12.675906 12.4191327,13.9960257 13.5654785,13.9960257 L18.5832343,13.9960257 C19.7295801,13.9960257 20.3996778,12.675906 19.7391529,11.7184117 L17.230275,8.08319299 C16.6670738,7.26667447 15.4816389,7.26667447 14.9184377,8.08319299 L14.9184377,8.08319299 Z" id="Path" fill="#CCCCCC"></path>
                <path d="M6.59885504,2.53543043 L0.260847121,11.7184117 C-0.399677807,12.675906 0.270419946,13.9960257 1.41676574,13.9960257 L14.0927816,13.9960257 C15.2391274,13.9960257 15.9092251,12.675906 15.2487002,11.7184117 L8.91069228,2.53543043 C8.34749108,1.71891191 7.16205624,1.71891191 6.59885504,2.53543043 L6.59885504,2.53543043 Z" id="Path" fill="#B3B3B3"></path>
                <ellipse id="Oval" fill="#CCCCCC" transform="translate(14.087365, 2.427501) rotate(-76.720000) translate(-14.087365, -2.427501) " cx="14.0873654" cy="2.42750143" rx="2.02521421" ry="1.98704108"></ellipse>
            </g>
            <g id="Group" transform="translate(86.000000, 47.000000)">
                <polygon id="Path" fill="#FFFFFF" points="10.5528754 10.4689476 0.664197706 0.441170879 0.44612539 14.4663974 3.26056998 11.7114422 4.80675189 15.5560196 7.27851142 14.5786122 5.86186118 11.0560426"></polygon>
                <path d="M4.80675189,15.9991868 C4.74690498,15.9991868 4.68705806,15.9869896 4.63049043,15.9634082 C4.52145428,15.9170586 4.43619292,15.8300515 4.3919226,15.7210892 L3.09496619,12.4961328 L0.759296911,14.7827131 C0.630585056,14.9087515 0.437107362,14.9453433 0.270683752,14.8745992 C0.104260142,14.803855 -0.00313637451,14.6404117 6.98666663e-05,14.4607054 L0.218215225,0.435478822 C0.220674687,0.256585627 0.332170307,0.0972080524 0.499413738,0.0313428303 C0.666657168,-0.0345223918 0.8576754,0.00532200183 0.983927793,0.132986691 L10.8726055,10.1599503 C10.9914795,10.2802966 11.0308309,10.4567504 10.9750831,10.6153148 C10.9193353,10.7738792 10.7775063,10.8877204 10.6094431,10.9088623 L6.49066369,11.4243999 L7.69334071,14.4159821 C7.73679121,14.5249443 7.73515157,14.6469169 7.68842178,14.7542528 C7.641692,14.8624019 7.55397118,14.9469696 7.4441152,14.9908797 L4.97235568,15.9682871 C4.91906733,15.989429 4.86331952,16 4.80675189,16 L4.80675189,15.9991868 Z M3.26056998,11.2690881 C3.29090335,11.2690881 3.32123672,11.2723407 3.35157008,11.2788459 C3.498318,11.3089325 3.61883164,11.4105764 3.67457945,11.5479989 L5.05515758,14.9819351 L6.69807833,14.3322275 L5.44703189,11.2202991 C5.396203,11.0934475 5.40686067,10.9495198 5.47736526,10.8316129 C5.54786984,10.7137061 5.66838349,10.6348304 5.80611337,10.6177543 L9.60598249,10.142061 L1.09378377,1.51127745 L0.909324106,13.3930382 L2.94739846,11.3983791 C3.03184,11.3154377 3.14497526,11.2707144 3.26056998,11.2707144 L3.26056998,11.2690881 Z" id="Shape" fill="#B3B3B3"></path>
            </g>
            <g id="Group" transform="translate(67.000000, 11.000000)" fill="#B3B3B3">
                <path d="M20.3317023,16 C19.9632398,16 19.6650385,15.6726709 19.6650385,15.270217 L19.6650385,11.4522715 C19.6650385,8.16019899 17.2181539,5.48164503 14.2108141,5.48164503 L0.666755987,5.48164503 C0.397149328,5.48164503 0.153686345,5.30367099 0.0507456208,5.03089672 C-0.0521951034,4.75812244 0.00417719794,4.44420844 0.195352829,4.23493244 L3.86853931,0.213971297 C4.12915908,-0.0713237657 4.55154284,-0.0713237657 4.81216261,0.213971297 C5.07278238,0.49926636 5.07278238,0.961641117 4.81216261,1.24693618 L2.27786002,4.02118472 L14.2116311,4.02118472 C17.9550787,4.02118472 21,7.35439695 21,11.4522715 L21,15.270217 C21,15.6735652 20.7009817,16 20.3333363,16 L20.3317023,16 Z" id="Path"></path>
                <path d="M4.33994247,9.50171183 C4.16919158,9.50171183 3.9984407,9.43016448 3.86853931,9.28796411 L0.195352829,5.26700298 C0.00417719794,5.05862132 -0.0521951034,4.74381297 0.0507456208,4.47103869 C0.153686345,4.19826442 0.397149328,4.02029038 0.666755987,4.02029038 L14.2108141,4.02029038 C14.5792766,4.02029038 14.8774779,4.34761951 14.8774779,4.75007336 C14.8774779,5.15252721 14.5784596,5.47985635 14.2108141,5.47985635 L2.27704303,5.47985635 L4.81134562,8.25410489 C5.07196539,8.53939995 5.07196539,9.00177471 4.81134562,9.28706977 C4.68144423,9.42927013 4.51069335,9.50081748 4.33994247,9.50081748 L4.33994247,9.50171183 Z" id="Path"></path>
            </g>
        </g>
    </g>
</svg>