<svg style="color: #9a9a9a" width="17" height="17" viewBox="0 0 17 17" fill="none" xmlns="http://www.w3.org/2000/svg">
<path fill-rule="evenodd" clip-rule="evenodd" d="M8.5 3.71875C8.7934 3.71875 9.03125 3.9566 9.03125 4.25V7.96875L12.75 7.96875C13.0434 7.96875 13.2812 8.2066 13.2812 8.5C13.2812 8.7934 13.0434 9.03125 12.75 9.03125H9.03125V12.75C9.03125 13.0434 8.7934 13.2813 8.5 13.2813C8.2066 13.2813 7.96875 13.0434 7.96875 12.75V9.03125H4.25C3.9566 9.03125 3.71875 8.7934 3.71875 8.5C3.71875 8.2066 3.9566 7.96875 4.25 7.96875L7.96875 7.96875V4.25C7.96875 3.9566 8.2066 3.71875 8.5 3.71875Z" fill="#9a9a9a"/>
</svg>
